<svg width="113" height="42" viewBox="0 0 113 42" fill="none" xmlns="http://www.w3.org/2000/svg">
<rect width="113" height="42" rx="8" fill="#22272E"/>
<path d="M29.1984 30L25.1984 24.375C24.7484 24.425 24.2818 24.45 23.7984 24.45H19.0984V30H17.2484V12.5H23.7984C26.0318 12.5 27.7818 13.0333 29.0484 14.1C30.3151 15.1667 30.9484 16.6333 30.9484 18.5C30.9484 19.8667 30.5984 21.025 29.8984 21.975C29.2151 22.9083 28.2318 23.5833 26.9484 24L31.2234 30H29.1984ZM23.7484 22.875C25.4818 22.875 26.8068 22.4917 27.7234 21.725C28.6401 20.9583 29.0984 19.8833 29.0984 18.5C29.0984 17.0833 28.6401 16 27.7234 15.25C26.8068 14.4833 25.4818 14.1 23.7484 14.1H19.0984V22.875H23.7484ZM42.3648 30.15C40.0982 30.15 38.3315 29.5 37.0648 28.2C35.7982 26.9 35.1648 25.0083 35.1648 22.525V12.5H37.0148V22.45C37.0148 24.4833 37.4732 26 38.3898 27C39.3065 28 40.6315 28.5 42.3648 28.5C44.1148 28.5 45.4482 28 46.3648 27C47.2815 26 47.7398 24.4833 47.7398 22.45V12.5H49.5398V22.525C49.5398 25.0083 48.9065 26.9 47.6398 28.2C46.3898 29.5 44.6315 30.15 42.3648 30.15ZM69.7396 12.5V30H68.2146L56.9646 15.8V30H55.1146V12.5H56.6396L67.9146 26.7V12.5H69.7396Z" fill="white"/>
<path d="M87 35V7L101 21L87 35Z" fill="white"/>
</svg>
