<svg width="133" height="42" viewBox="0 0 133 42" fill="none" xmlns="http://www.w3.org/2000/svg">
<rect width="133" height="42" rx="8" fill="#22272E"/>
<path d="M23.675 30L19.675 24.375C19.225 24.425 18.7583 24.45 18.275 24.45H13.575V30H11.725V12.5H18.275C20.5083 12.5 22.2583 13.0333 23.525 14.1C24.7917 15.1667 25.425 16.6333 25.425 18.5C25.425 19.8667 25.075 21.025 24.375 21.975C23.6917 22.9083 22.7083 23.5833 21.425 24L25.7 30H23.675ZM18.225 22.875C19.9583 22.875 21.2833 22.4917 22.2 21.725C23.1167 20.9583 23.575 19.8833 23.575 18.5C23.575 17.0833 23.1167 16 22.2 15.25C21.2833 14.4833 19.9583 14.1 18.225 14.1H13.575V22.875H18.225ZM42.1664 28.4V30H29.7914V12.5H41.7914V14.1H31.6414V20.325H40.6914V21.9H31.6414V28.4H42.1664ZM51.34 30.15C50.04 30.15 48.79 29.9417 47.59 29.525C46.4067 29.1083 45.49 28.5583 44.84 27.875L45.565 26.45C46.1984 27.0833 47.04 27.6 48.09 28C49.14 28.3833 50.2234 28.575 51.34 28.575C52.9067 28.575 54.0817 28.2917 54.865 27.725C55.6484 27.1417 56.04 26.3917 56.04 25.475C56.04 24.775 55.8234 24.2167 55.39 23.8C54.9734 23.3833 54.4567 23.0667 53.84 22.85C53.2234 22.6167 52.365 22.3667 51.265 22.1C49.9484 21.7667 48.8984 21.45 48.115 21.15C47.3317 20.8333 46.6567 20.3583 46.09 19.725C45.54 19.0917 45.265 18.2333 45.265 17.15C45.265 16.2667 45.4984 15.4667 45.965 14.75C46.4317 14.0167 47.1484 13.4333 48.115 13C49.0817 12.5667 50.2817 12.35 51.715 12.35C52.715 12.35 53.69 12.4917 54.64 12.775C55.6067 13.0417 56.44 13.4167 57.14 13.9L56.515 15.375C55.7817 14.8917 54.9984 14.5333 54.165 14.3C53.3317 14.05 52.515 13.925 51.715 13.925C50.1817 13.925 49.0234 14.225 48.24 14.825C47.4734 15.4083 47.09 16.1667 47.09 17.1C47.09 17.8 47.2984 18.3667 47.715 18.8C48.1484 19.2167 48.6817 19.5417 49.315 19.775C49.965 19.9917 50.8317 20.2333 51.915 20.5C53.1984 20.8167 54.2317 21.1333 55.015 21.45C55.815 21.75 56.49 22.2167 57.04 22.85C57.59 23.4667 57.865 24.3083 57.865 25.375C57.865 26.2583 57.6234 27.0667 57.14 27.8C56.6734 28.5167 55.9484 29.0917 54.965 29.525C53.9817 29.9417 52.7734 30.15 51.34 30.15ZM74.2709 28.4V30H61.8959V12.5H73.8959V14.1H63.7459V20.325H72.7959V21.9H63.7459V28.4H74.2709ZM82.0195 14.1H75.8695V12.5H90.0195V14.1H83.8695V30H82.0195V14.1Z" fill="white"/>
<path fill-rule="evenodd" clip-rule="evenodd" d="M108 7.25V11C113.525 11 118 15.475 118 21C118 22.9625 117.425 24.7875 116.45 26.325L114.625 24.5C115.188 23.4625 115.5 22.2625 115.5 21C115.5 16.8625 112.137 13.5 108 13.5V17.25L103 12.25L108 7.25ZM100.5 21C100.5 25.1375 103.863 28.5 108 28.5V24.75L113 29.75L108 34.75V31C102.475 31 98 26.525 98 21C98 19.0375 98.575 17.2125 99.55 15.675L101.375 17.5C100.813 18.5375 100.5 19.7375 100.5 21Z" fill="white"/>
</svg>
